<svg viewBox="0 0 1920 1080" xmlns="http://www.w3.org/2000/svg">
  <defs>
    <radialGradient id="ocean" cx="78%" cy="70%" r="90%">
      <stop offset="0%" stop-color="#16414a"/>
      <stop offset="35%" stop-color="#0f2830"/>
      <stop offset="75%" stop-color="#0c1720"/>
      <stop offset="100%" stop-color="#080f16"/>
    </radialGradient>
  </defs>
  <rect width="1920" height="1080" fill="url(#ocean)"/>
  <circle cx="1228" cy="17" r="1.4" fill="#f6f3ec" fill-opacity="0.28"/>
  <circle cx="1414" cy="453" r="2.4" fill="#f6f3ec" fill-opacity="0.22"/>
  <circle cx="810" cy="20" r="1.3" fill="#f6f3ec" fill-opacity="0.42"/>
  <circle cx="51" cy="133" r="2.0" fill="#f6f3ec" fill-opacity="0.44"/>
  <circle cx="423" cy="395" r="2.3" fill="#f6f3ec" fill-opacity="0.18"/>
  <circle cx="1547" cy="467" r="1.5" fill="#f6f3ec" fill-opacity="0.25"/>
  <circle cx="1838" cy="225" r="1.1" fill="#f6f3ec" fill-opacity="0.23"/>
  <circle cx="1627" cy="404" r="2.3" fill="#f6f3ec" fill-opacity="0.52"/>
  <circle cx="1030" cy="652" r="1.6" fill="#f6f3ec" fill-opacity="0.44"/>
  <circle cx="1592" cy="414" r="2.4" fill="#f6f3ec" fill-opacity="0.45"/>
  <circle cx="1353" cy="31" r="1.4" fill="#f6f3ec" fill-opacity="0.32"/>
  <circle cx="153" cy="156" r="1.2" fill="#f6f3ec" fill-opacity="0.31"/>
  <circle cx="1221" cy="244" r="1.6" fill="#f6f3ec" fill-opacity="0.28"/>
  <circle cx="513" cy="627" r="2.0" fill="#f6f3ec" fill-opacity="0.47"/>
  <circle cx="329" cy="488" r="1.3" fill="#f6f3ec" fill-opacity="0.36"/>
  <circle cx="1900" cy="429" r="1.9" fill="#f6f3ec" fill-opacity="0.50"/>
  <circle cx="1618" cy="520" r="1.4" fill="#f6f3ec" fill-opacity="0.20"/>
  <circle cx="606" cy="179" r="1.3" fill="#f6f3ec" fill-opacity="0.62"/>
  <circle cx="1683" cy="211" r="2.0" fill="#f6f3ec" fill-opacity="0.37"/>
  <circle cx="1756" cy="307" r="1.4" fill="#f6f3ec" fill-opacity="0.30"/>
  <circle cx="1078" cy="176" r="1.9" fill="#f6f3ec" fill-opacity="0.60"/>
  <circle cx="767" cy="147" r="2.6" fill="#f6f3ec" fill-opacity="0.42"/>
  <circle cx="175" cy="32" r="1.2" fill="#f6f3ec" fill-opacity="0.47"/>
  <circle cx="1521" cy="283" r="1.1" fill="#f6f3ec" fill-opacity="0.36"/>
  <circle cx="1913" cy="354" r="2.6" fill="#f6f3ec" fill-opacity="0.58"/>
  <circle cx="22" cy="483" r="2.1" fill="#f6f3ec" fill-opacity="0.43"/>
  <circle cx="512" cy="429" r="1.2" fill="#f6f3ec" fill-opacity="0.38"/>
  <circle cx="871" cy="639" r="2.4" fill="#f6f3ec" fill-opacity="0.30"/>
  <circle cx="961" cy="120" r="2.5" fill="#f6f3ec" fill-opacity="0.59"/>
  <circle cx="573" cy="428" r="2.0" fill="#f6f3ec" fill-opacity="0.25"/>
  <circle cx="1464" cy="361" r="2.2" fill="#f6f3ec" fill-opacity="0.43"/>
  <circle cx="1" cy="217" r="1.0" fill="#f6f3ec" fill-opacity="0.62"/>
  <circle cx="1687" cy="557" r="1.5" fill="#f6f3ec" fill-opacity="0.21"/>
  <circle cx="1686" cy="634" r="1.1" fill="#f6f3ec" fill-opacity="0.41"/>
  <circle cx="133" cy="509" r="2.2" fill="#f6f3ec" fill-opacity="0.24"/>
  <circle cx="913" cy="368" r="1.4" fill="#f6f3ec" fill-opacity="0.59"/>
  <circle cx="812" cy="142" r="1.9" fill="#f6f3ec" fill-opacity="0.52"/>
  <circle cx="386" cy="209" r="2.6" fill="#f6f3ec" fill-opacity="0.49"/>
  <circle cx="841" cy="347" r="1.2" fill="#f6f3ec" fill-opacity="0.29"/>
  <circle cx="649" cy="394" r="1.4" fill="#f6f3ec" fill-opacity="0.28"/>
  <circle cx="136" cy="423" r="1.4" fill="#f6f3ec" fill-opacity="0.61"/>
  <circle cx="1650" cy="47" r="1.4" fill="#f6f3ec" fill-opacity="0.49"/>
  <circle cx="411" cy="89" r="2.5" fill="#f6f3ec" fill-opacity="0.45"/>
  <circle cx="908" cy="525" r="2.3" fill="#f6f3ec" fill-opacity="0.27"/>
  <circle cx="186" cy="289" r="1.7" fill="#f6f3ec" fill-opacity="0.40"/>
  <circle cx="1400" cy="451" r="2.6" fill="#f6f3ec" fill-opacity="0.23"/>
  <circle cx="773" cy="227" r="2.4" fill="#f6f3ec" fill-opacity="0.30"/>
  <circle cx="365" cy="300" r="1.7" fill="#f6f3ec" fill-opacity="0.31"/>
  <circle cx="480" cy="618" r="1.7" fill="#f6f3ec" fill-opacity="0.58"/>
  <circle cx="1057" cy="34" r="2.6" fill="#f6f3ec" fill-opacity="0.57"/>
  <circle cx="1860" cy="620" r="2.4" fill="#f6f3ec" fill-opacity="0.26"/>
  <circle cx="932" cy="143" r="1.6" fill="#f6f3ec" fill-opacity="0.21"/>
  <circle cx="728" cy="660" r="1.4" fill="#f6f3ec" fill-opacity="0.55"/>
  <circle cx="874" cy="283" r="2.5" fill="#f6f3ec" fill-opacity="0.65"/>
  <circle cx="1067" cy="481" r="1.2" fill="#f6f3ec" fill-opacity="0.32"/>
  <circle cx="2086" cy="718" r="2.6" fill="#b85f2c" fill-opacity="0.5"/>
  <circle cx="1489" cy="895" r="2.6" fill="#b85f2c" fill-opacity="0.5"/>
  <circle cx="810" cy="723" r="2.6" fill="#b85f2c" fill-opacity="0.5"/>
  <circle cx="1434" cy="1005" r="2.6" fill="#b85f2c" fill-opacity="0.5"/>
  <circle cx="950" cy="1119" r="2.6" fill="#b85f2c" fill-opacity="0.5"/>
  <circle cx="842" cy="305" r="2.6" fill="#b85f2c" fill-opacity="0.5"/>
  <path d="M1449.9,730.3 L1576.8,-46.8 L1421.8,725.2 Z" fill="#4fb6ad" fill-opacity="0.10"/>
  <path d="M1451.1,753.6 L1657.6,407.0 L1427.1,738.1 Z" fill="#4fb6ad" fill-opacity="0.10"/>
  <path d="M1457.9,758.1 L1923.4,418.5 L1441.6,734.6 Z" fill="#4fb6ad" fill-opacity="0.10"/>
  <path d="M1449.4,770.4 L1840.5,671.3 L1443.4,742.5 Z" fill="#4fb6ad" fill-opacity="0.10"/>
  <path d="M1459.7,779.9 L2236.8,906.8 L1464.8,751.8 Z" fill="#4fb6ad" fill-opacity="0.10"/>
  <path d="M1436.4,781.1 L1783.0,987.6 L1451.9,757.1 Z" fill="#4fb6ad" fill-opacity="0.10"/>
  <path d="M1431.9,787.9 L1771.5,1253.4 L1455.4,771.6 Z" fill="#4fb6ad" fill-opacity="0.10"/>
  <path d="M1419.6,779.4 L1518.7,1170.5 L1447.5,773.4 Z" fill="#4fb6ad" fill-opacity="0.10"/>
  <path d="M1410.1,789.7 L1283.2,1566.8 L1438.2,794.8 Z" fill="#4fb6ad" fill-opacity="0.10"/>
  <path d="M1408.9,766.4 L1202.4,1113.0 L1432.9,781.9 Z" fill="#4fb6ad" fill-opacity="0.10"/>
  <path d="M1402.1,761.9 L936.6,1101.5 L1418.4,785.4 Z" fill="#4fb6ad" fill-opacity="0.10"/>
  <path d="M1410.6,749.6 L1019.5,848.7 L1416.6,777.5 Z" fill="#4fb6ad" fill-opacity="0.10"/>
  <path d="M1400.3,740.1 L623.2,613.2 L1395.2,768.2 Z" fill="#4fb6ad" fill-opacity="0.10"/>
  <path d="M1423.6,738.9 L1077.0,532.4 L1408.1,762.9 Z" fill="#4fb6ad" fill-opacity="0.10"/>
  <path d="M1428.1,732.1 L1088.5,266.6 L1404.6,748.4 Z" fill="#4fb6ad" fill-opacity="0.10"/>
  <path d="M1440.4,740.6 L1341.3,349.5 L1412.5,746.6 Z" fill="#4fb6ad" fill-opacity="0.10"/>
  <circle cx="1430" cy="760" r="820" fill="none" stroke="#1f6f74" stroke-opacity="0.10" stroke-width="1.5"/>
  <path d="M 0,929 C 480,864 864,994 1344,918 S 1920,972 1920,896" fill="none" stroke="#4fb6ad" stroke-opacity="0.14" stroke-width="2"/>
</svg>